<?xml version="1.0" encoding="UTF-8" standalone="no"?>
<svg xmlns="http://www.w3.org/2000/svg" version="1.0" width="1600.000000pt" height="1200.000000pt" viewBox="0 0 1600.000000 1200.000000" preserveAspectRatio="xMidYMid meet">
  <g transform="translate(0.000000,1200.000000) scale(0.100000,-0.100000)" fill="#000000" stroke="none">
    <path d="M0 6000 l0 -6000 3014 0 3014 0 6 28 c3 15 10 65 16 112 6 47 19 135 30 195 10 61 21 144 25 185 8 99 57 315 106 469 21 68 39 130 39 137 0 20 31 94 40 94 4 0 12 -17 18 -39 25 -83 52 -131 78 -137 13 -3 28 -13 33 -22 6 -11 31 -18 74 -22 44 -5 74 -14 93 -29 20 -16 41 -21 84 -21 35 0 70 -7 91 -18 27 -13 55 -16 133 -14 86 2 107 -1 163 -23 59 -24 69 -25 118 -15 64 13 111 7 186 -26 142 -61 290 -66 598 -23 113 16 153 18 185 10 23 -6 77 -15 121 -21 141 -20 178 -30 296 -87 98 -47 120 -62 140 -94 13 -21 28 -39 32 -39 4 0 17 -21 28 -47 23 -55 36 -65 60 -52 23 12 25 12 44 -7 14 -14 14 -19 2 -38 -15 -22 -30 -86 -21 -86 11 0 33 28 27 34 -4 3 6 6 20 6 17 0 32 9 43 24 8 14 21 23 27 20 7 -2 69 51 138 119 70 68 140 134 157 146 21 15 29 27 25 38 -4 10 -2 14 4 10 11 -7 85 27 77 36 -3 2 12 15 32 28 31 19 54 23 138 26 93 3 144 11 311 49 105 24 266 38 315 27 25 -5 61 -6 80 -2 19 4 39 4 43 0 5 -5 18 -71 29 -147 17 -115 21 -195 22 -461 l1 -323 2271 0 2271 0 11 68 c6 37 14 110 17 162 9 136 31 239 72 326 l35 76 -38 57 c-21 31 -51 66 -66 79 -15 13 -28 31 -28 40 0 10 -6 26 -14 37 -43 64 -63 205 -46 331 17 131 69 308 100 344 11 13 20 27 20 32 0 5 12 28 28 51 65 99 74 145 45 238 -14 42 -17 86 -16 196 1 130 4 149 31 225 64 176 78 206 118 250 23 25 45 55 49 67 3 11 11 21 16 21 5 0 26 15 46 33 42 37 99 69 152 86 103 33 332 19 406 -24 51 -30 122 -113 156 -184 l27 -56 1 326 c1 349 2 339 -46 339 -28 0 -106 44 -144 82 -52 50 -69 96 -69 187 0 63 4 83 25 116 13 22 24 47 25 55 0 8 21 34 47 58 55 48 104 63 132 38 10 -9 21 -16 24 -16 4 0 7 1881 7 4180 l0 4180 -8000 0 -8000 0 0 -6000z m7991 5187 c-16 -16 -26 0 -10 19 9 11 15 12 17 4 2 -6 -1 -17 -7 -23z m-159 -268 c-2 -13 -12 -33 -23 -44 -24 -26 -15 -63 17 -71 27 -7 30 -24 12 -54 -10 -16 -9 -25 5 -49 21 -37 8 -47 -26 -21 -35 28 -41 11 -11 -33 l24 -36 -20 -37 c-12 -20 -20 -37 -18 -38 2 -1 17 -8 33 -16 22 -10 26 -14 13 -17 -9 -2 -18 -14 -20 -26 -5 -34 -69 -47 -114 -22 -38 20 -42 31 -16 39 26 9 28 56 2 56 -11 0 -20 5 -20 10 0 6 11 10 24 10 14 0 28 5 31 10 4 6 -8 10 -29 10 -29 0 -36 4 -36 20 0 12 12 26 30 35 16 8 29 19 27 23 -1 5 21 28 48 52 64 55 67 74 7 47 -18 -8 -25 -8 -33 4 -7 11 -9 9 -9 -8 0 -13 -3 -23 -7 -23 -15 0 -103 -88 -103 -103 0 -8 -5 -17 -11 -19 -17 -6 -27 -74 -18 -125 14 -70 2 -150 -31 -214 -29 -54 -35 -107 -15 -121 6 -4 21 -8 33 -8 39 0 20 -23 -44 -53 -70 -34 -72 -36 -55 -46 9 -6 10 -11 2 -15 -6 -4 -9 -12 -6 -17 4 -5 -1 -9 -9 -9 -18 0 -21 -15 -7 -25 21 -12 -4 -135 -28 -135 -4 0 -13 -17 -19 -37 -6 -21 -20 -68 -31 -106 -12 -37 -21 -78 -21 -90 0 -13 -6 -32 -14 -42 -9 -12 -11 -27 -6 -40 4 -11 13 -54 19 -95 7 -42 18 -80 26 -86 28 -21 15 -144 -15 -144 -15 0 -19 12 -24 73 -10 129 -15 171 -25 242 -37 235 -39 352 -11 531 30 197 38 218 102 290 19 22 88 230 88 268 0 44 79 124 183 187 49 29 64 45 111 122 20 33 42 31 38 -4z m-34 -517 c-25 -5 -23 -33 2 -39 19 -5 20 -6 3 -19 -28 -21 -56 -18 -48 5 3 12 0 21 -10 25 -8 3 -15 12 -15 20 0 16 33 25 65 17 17 -5 18 -6 3 -9z m-158 -97 c-7 -8 -17 -15 -22 -15 -6 0 -5 7 2 15 7 8 17 15 22 15 6 0 5 -7 -2 -15z m98 -103 c6 -18 -15 -14 -22 4 -4 10 -1 14 6 12 6 -2 14 -10 16 -16z m-127 -295 c31 -38 50 -153 23 -143 -8 3 -14 2 -14 -2 0 -5 -16 -16 -35 -25 -42 -20 -54 -43 -33 -64 12 -12 20 -13 36 -4 28 15 32 14 32 -7 0 -10 -13 -31 -29 -46 -27 -26 -51 -73 -31 -61 5 3 11 1 15 -4 13 -22 -73 -76 -92 -58 -3 3 -8 35 -10 71 -4 49 -2 71 9 88 9 13 19 42 22 65 4 23 14 44 21 47 32 12 56 115 27 116 -4 0 -14 4 -22 10 -12 7 -12 12 4 29 26 29 46 25 77 -12z m-5 -444 c3 -16 10 -45 15 -65 7 -25 6 -45 -1 -57 -19 -36 -12 -78 16 -100 15 -12 33 -21 40 -21 28 0 13 -18 -21 -24 -23 -5 -35 -13 -35 -23 0 -29 41 -83 68 -89 56 -12 82 -27 88 -51 5 -19 -1 -31 -32 -58 -22 -19 -46 -37 -54 -40 -27 -9 -49 -57 -38 -85 5 -14 7 -34 4 -44 -8 -32 12 -46 68 -47 73 -1 157 -14 164 -26 9 -12 58 -40 95 -53 15 -5 27 -16 27 -25 0 -14 10 -18 82 -30 35 -5 36 -6 25 -35 -6 -17 -18 -32 -27 -34 -29 -9 -105 -10 -150 -2 -104 18 -339 -30 -412 -84 -33 -24 -44 -25 -52 -4 -3 9 -6 109 -6 222 0 192 -4 237 -28 380 -12 69 -5 104 18 97 33 -11 41 18 37 132 -2 59 -6 117 -8 128 -3 16 2 21 27 23 18 2 40 12 50 23 23 26 32 24 40 -8z m-149 -77 c-6 -17 -27 -18 -33 -2 -3 9 -3 24 1 34 6 16 7 16 21 -3 8 -10 13 -24 11 -29z m1363 -699 c14 -2 28 -5 31 -5 4 -1 9 -18 12 -37 3 -19 17 -46 31 -60 14 -14 26 -35 26 -45 0 -16 -7 -20 -37 -20 -49 1 -139 25 -135 36 1 5 20 15 43 23 l40 13 -20 19 c-18 17 -34 19 -118 17 -54 -1 -123 4 -153 11 -30 7 -73 15 -95 18 -40 5 -59 19 -48 36 5 8 364 3 423 -6z m10 -186 c11 -6 15 -33 16 -122 1 -72 8 -134 18 -169 9 -30 22 -89 30 -130 19 -99 25 -114 81 -187 26 -36 43 -68 39 -74 -5 -8 -33 -10 -98 -5 -50 4 -116 9 -146 11 -93 7 -152 26 -197 64 -54 45 -82 104 -99 211 -8 47 -21 115 -30 152 -10 40 -14 83 -10 105 11 67 40 178 48 183 10 8 329 -28 348 -39z m-1216 -110 c3 -5 -9 -14 -27 -21 -17 -7 -41 -16 -52 -20 -11 -5 -29 -10 -40 -13 -11 -3 -28 -8 -37 -12 -14 -5 -18 -2 -18 12 0 23 34 58 49 49 5 -4 12 -2 16 4 8 12 102 13 109 1z m-614 -401 c0 -5 -5 -10 -11 -10 -5 0 -7 5 -4 10 3 6 8 10 11 10 2 0 4 -4 4 -10z m-55 -35 c-39 -32 -58 -32 -22 0 15 14 33 25 40 25 7 -1 -1 -12 -18 -25z m-782 -318 c-20 -69 -31 -83 -49 -60 -30 40 -11 100 36 115 27 9 29 -1 13 -55z m-363 -189 c0 -19 -18 -44 -25 -36 -4 3 0 15 7 27 15 24 18 26 18 9z m2752 -225 c74 -224 104 -341 91 -354 -6 -6 -32 -11 -58 -12 -54 -2 -32 -22 -190 178 -33 42 -61 73 -62 68 -2 -5 15 -65 37 -133 22 -68 40 -132 40 -142 0 -20 -41 -41 -73 -36 -16 2 -25 20 -42 85 -24 92 -98 298 -128 359 -11 22 -18 48 -14 56 3 9 27 21 54 26 62 14 66 11 183 -122 52 -58 97 -106 101 -106 5 0 1 16 -7 35 -8 20 -29 78 -46 130 -37 113 -33 123 47 134 6 0 36 -74 67 -166z m364 140 c18 -19 184 -513 177 -525 -2 -5 -26 -8 -52 -8 -46 0 -49 2 -61 33 -31 83 -23 77 -104 77 l-74 0 -7 -46 c-6 -45 -7 -46 -38 -40 -17 4 -36 11 -41 16 -15 15 -8 95 20 219 38 173 72 271 98 281 34 14 65 11 82 -7z m-3192 -91 c-7 -32 -20 -77 -29 -101 -8 -24 -15 -52 -15 -62 0 -11 -4 -19 -10 -19 -25 0 1 144 37 203 13 20 25 37 27 37 2 0 -3 -26 -10 -58z m3695 19 c11 -7 21 -15 21 -19 0 -6 -36 -184 -71 -347 -4 -22 -8 -43 -9 -47 0 -4 26 -14 58 -23 31 -9 66 -23 76 -30 18 -14 18 -15 -8 -50 -15 -19 -29 -35 -32 -35 -13 0 -220 72 -227 79 -5 5 -1 26 8 47 21 49 75 299 82 379 3 33 10 63 16 66 11 8 52 -3 86 -20z m-8186 -147 c20 -10 37 -21 37 -26 0 -4 25 -20 55 -35 30 -15 57 -35 61 -45 3 -9 17 -27 32 -40 32 -28 66 -95 52 -103 -6 -3 -10 -21 -10 -39 0 -35 -15 -56 -41 -56 -15 0 -16 -4 -6 -37 6 -21 15 -41 21 -45 5 -3 8 -30 7 -59 -2 -70 17 -93 60 -72 33 16 40 38 9 28 -17 -5 -19 -2 -17 17 2 13 9 23 15 22 28 -2 32 -5 32 -19 0 -19 2 -19 46 7 58 34 132 31 181 -8 21 -17 70 -40 109 -52 69 -21 184 -69 184 -78 0 -2 -15 -10 -34 -18 -33 -14 -126 -119 -160 -181 -9 -16 -35 -59 -57 -95 -23 -36 -56 -95 -75 -132 -19 -37 -42 -69 -53 -73 -20 -6 -101 12 -182 40 -24 9 -60 31 -79 49 -19 19 -47 36 -62 40 -56 13 -48 91 22 203 62 99 93 161 85 173 -3 5 -15 0 -25 -10 -20 -20 -60 -27 -60 -11 0 5 11 23 25 39 30 36 31 52 7 82 -15 19 -22 21 -39 12 -11 -6 -23 -18 -27 -27 -7 -20 -46 -19 -61 2 -12 16 -14 16 -30 -1 -31 -31 -64 -48 -80 -42 -34 13 0 56 39 49 20 -4 26 0 31 20 9 34 -10 67 -38 67 -12 0 -33 7 -46 17 -13 9 -48 18 -78 19 -67 4 -93 12 -93 29 0 7 -7 15 -15 19 -8 3 -15 15 -15 27 0 19 -4 21 -32 15 -38 -8 -125 11 -150 32 -10 8 -18 23 -18 32 0 26 36 67 65 74 24 6 26 9 20 50 -13 85 66 170 170 186 42 6 151 -17 218 -46z m4613 19 c-3 -10 -12 -45 -21 -78 -19 -75 -35 -115 -46 -115 -12 0 -12 53 0 66 5 5 14 27 21 49 20 67 32 95 42 95 5 0 7 -8 4 -17z m4015 -72 c121 -79 155 -121 169 -204 16 -99 -23 -199 -98 -251 -37 -27 -51 -30 -111 -30 -59 1 -80 7 -164 47 -54 25 -100 53 -103 61 -3 8 3 28 13 43 22 31 143 335 143 357 0 27 12 46 30 46 9 0 64 -31 121 -69z m-1804 28 c97 -46 177 -176 177 -290 0 -164 -125 -236 -280 -159 -111 54 -184 165 -184 277 0 35 6 78 14 96 41 96 159 129 273 76z m-2781 -41 c58 -30 63 -31 78 -15 22 21 22 21 62 -4 35 -21 42 -37 23 -56 -7 -7 0 -14 23 -24 18 -7 38 -17 43 -21 115 -90 188 -138 208 -138 21 0 32 -42 19 -67 -6 -10 -77 -51 -159 -92 -81 -41 -159 -80 -173 -87 -16 -8 -26 -23 -28 -41 -4 -33 -26 -60 -56 -69 -11 -3 -51 -19 -89 -36 l-67 -29 -173 11 c-165 11 -173 12 -207 39 -24 19 -38 41 -46 74 -7 26 -9 47 -5 47 3 1 -4 9 -17 20 l-23 19 20 39 c17 34 42 65 147 179 12 13 36 26 54 28 31 4 68 39 62 58 -1 5 2 6 7 2 6 -3 28 19 50 48 48 66 139 146 166 147 10 0 47 -14 81 -32z m499 -128 c3 -5 1 -10 -4 -10 -6 0 -11 5 -11 10 0 6 2 10 4 10 3 0 8 -4 11 -10z m1876 -135 c50 -26 89 -90 89 -147 0 -32 4 -48 13 -48 29 1 220 -65 224 -78 7 -16 -55 -82 -77 -82 -9 0 -56 14 -105 30 -89 30 -125 37 -125 22 0 -4 32 -38 70 -76 39 -37 70 -73 70 -80 0 -7 -15 -27 -33 -44 l-33 -32 -155 150 c-85 83 -173 164 -197 180 l-42 28 36 48 c20 27 48 62 63 77 57 62 140 83 202 52z m-6840 -99 c-7 -22 -12 -49 -12 -59 0 -9 -4 -15 -8 -13 -4 3 -19 -1 -34 -9 -14 -7 -28 -11 -31 -7 -15 14 -3 54 23 84 16 19 32 51 36 72 l8 38 15 -32 c13 -27 14 -39 3 -74z m9416 42 c50 -56 84 -179 86 -313 1 -92 -23 -153 -68 -173 -119 -54 -241 79 -239 263 0 96 24 154 84 209 49 44 104 50 137 14z m1092 -213 c21 -4 41 -25 77 -78 72 -106 202 -265 222 -271 27 -10 92 -105 98 -147 4 -21 10 -36 15 -33 10 6 11 -2 13 -53 1 -18 -4 -33 -10 -33 -14 0 -76 65 -68 72 9 10 -25 68 -40 68 -8 0 -17 14 -21 30 -8 35 -21 39 -30 10 -6 -20 -25 -28 -25 -11 0 21 13 41 26 41 8 0 11 6 8 15 -5 13 -9 13 -34 0 -37 -19 -40 -19 -40 6 0 20 -57 98 -72 99 -25 0 -195 188 -204 224 -4 16 3 36 23 64 22 31 29 35 31 21 2 -10 15 -20 31 -24z m-10561 -21 c2 -16 11 -37 19 -46 13 -14 13 -20 3 -33 -7 -8 -18 -15 -25 -15 -7 0 -18 -7 -25 -15 -32 -38 -40 20 -13 96 19 54 36 59 41 13z m3714 -33 c4 -28 4 -29 -19 -14 -26 17 -28 24 -11 41 16 16 25 7 30 -27z m-2468 -82 c-3 -5 -9 -7 -14 -4 -5 3 -17 -6 -28 -20 -11 -14 -23 -25 -26 -25 -4 0 5 15 19 34 16 21 32 33 41 29 7 -3 11 -9 8 -14z m41 11 c3 -5 -1 -10 -10 -10 -9 0 -13 5 -10 10 3 6 8 10 10 10 2 0 7 -4 10 -10z m322 -25 c50 -17 87 -36 103 -54 14 -15 33 -32 41 -37 9 -5 20 -22 26 -39 12 -37 79 -73 138 -75 22 0 58 -5 80 -10 22 -5 42 -5 45 -1 3 4 17 11 33 15 21 5 29 2 34 -11 15 -39 33 -43 163 -37 74 3 153 1 195 -6 39 -6 87 -14 108 -17 22 -3 37 -2 37 5 0 13 -24 18 -135 32 -91 11 -103 15 -92 26 8 8 189 -13 272 -31 48 -11 56 -15 38 -20 -13 -4 -23 -13 -23 -19 0 -16 21 -36 37 -36 7 0 32 -12 54 -26 37 -23 43 -24 56 -11 14 13 12 17 -13 30 l-28 14 24 13 c28 15 168 16 182 2 6 -6 -3 -20 -21 -38 -21 -19 -31 -39 -31 -58 0 -43 -22 -210 -29 -218 -4 -4 -37 4 -75 18 -37 13 -89 29 -114 35 -26 5 -63 20 -82 33 -41 27 -106 41 -290 61 -127 14 -233 38 -324 72 -22 8 -81 18 -131 22 -50 4 -96 10 -101 14 -6 3 -23 -3 -40 -14 -36 -24 -114 -25 -157 -3 -58 30 -67 34 -79 34 -26 -1 -128 56 -134 73 -3 10 -19 23 -35 29 -33 11 -38 26 -11 34 9 3 26 10 37 15 11 6 31 11 44 12 13 1 45 21 70 45 36 35 42 45 30 53 -7 5 -17 9 -21 9 -4 0 -7 20 -6 45 0 40 3 45 24 45 13 0 58 -11 101 -25z m1743 -85 c0 -5 -2 -10 -4 -10 -2 0 -12 -3 -20 -6 -12 -5 -15 -2 -10 10 7 17 34 22 34 6z m4625 -76 c83 -8 227 -19 320 -24 271 -15 472 -32 486 -40 7 -5 12 -25 11 -47 -4 -121 -24 -387 -32 -410 -10 -36 -267 -701 -314 -813 -19 -47 -51 -150 -71 -229 -37 -147 -60 -206 -91 -232 -13 -10 -16 -11 -10 -1 9 15 22 62 65 228 16 60 41 139 55 175 45 109 216 539 216 543 0 3 29 78 64 168 35 90 67 181 70 203 13 86 27 378 18 387 -10 10 -178 23 -508 38 -127 6 -300 19 -385 29 -85 10 -157 16 -161 14 -20 -11 -6 -30 18 -25 14 2 82 -1 152 -7 70 -6 174 -16 232 -21 58 -5 193 -14 300 -20 107 -6 225 -13 263 -17 l67 -6 0 -86 c0 -47 -5 -135 -11 -196 -12 -126 -23 -156 -254 -745 -42 -107 -85 -217 -96 -245 -11 -27 -36 -113 -55 -190 -41 -158 -57 -194 -114 -260 -22 -26 -48 -61 -57 -78 -8 -18 -28 -48 -44 -68 -34 -44 -65 -104 -120 -235 -52 -124 -143 -357 -176 -449 -14 -38 -29 -74 -33 -78 -9 -11 -321 12 -335 24 -14 13 -25 11 -25 -5 0 -10 34 -16 138 -25 75 -6 158 -14 183 -17 l46 -5 26 63 c15 35 51 126 81 203 121 312 190 465 210 465 5 0 -109 -282 -129 -319 -15 -29 -60 -147 -127 -331 -17 -47 -37 -91 -44 -99 -12 -13 -38 -13 -191 -2 -242 17 -227 11 -220 81 2 31 21 104 40 161 20 57 47 148 62 201 47 174 71 232 147 349 181 280 166 249 208 424 16 66 50 179 75 250 26 72 68 193 95 270 27 77 70 194 95 260 26 66 54 139 63 162 9 23 14 44 12 47 -3 2 -68 9 -145 15 -226 16 -529 51 -539 61 -6 6 5 47 32 112 44 110 82 223 82 245 0 17 50 144 64 162 8 10 26 12 76 7 36 -4 133 -14 215 -22z m-5760 -14 c-28 -12 -47 -12 -40 0 3 6 18 10 33 9 24 0 25 -1 7 -9z m-127 -7 c-10 -2 -28 -2 -40 0 -13 2 -5 4 17 4 22 1 32 -1 23 -4z m263 -12 c-11 -7 -11 -10 0 -15 8 -3 -8 -4 -34 -2 -76 6 -84 26 -11 26 37 0 54 -4 45 -9z m8389 -91 c0 -5 -4 -10 -10 -10 -5 0 -10 5 -10 10 0 6 5 10 10 10 6 0 10 -4 10 -10z m-8970 -240 c12 -8 9 -10 -12 -10 -16 0 -28 5 -28 10 0 13 20 13 40 0z m670 -146 c47 -4 96 -12 110 -19 14 -7 56 -15 95 -19 67 -7 100 -20 90 -36 -7 -12 48 -22 79 -14 21 5 27 2 36 -20 6 -16 15 -24 24 -20 19 7 29 -12 22 -42 -6 -21 -9 -24 -21 -14 -12 10 -15 9 -15 -3 0 -8 7 -20 15 -27 10 -8 15 -31 15 -71 0 -49 -3 -60 -20 -69 -27 -15 -120 5 -176 37 -22 12 -48 23 -56 23 -28 0 -78 58 -78 91 0 29 1 30 34 24 21 -4 36 -2 41 5 13 21 -15 38 -63 38 -88 0 -94 1 -99 22 -4 16 -11 18 -47 14 -43 -6 -43 -6 -143 76 -7 6 -10 17 -6 26 4 12 15 14 42 10 20 -3 74 -9 121 -12z m11033 -108 c18 -7 49 -32 69 -55 38 -44 52 -50 66 -25 5 9 30 20 57 25 43 8 66 7 119 -8 10 -3 53 -37 95 -77 43 -39 98 -87 124 -106 55 -42 73 -76 55 -111 -6 -13 -17 -15 -52 -12 -53 6 -86 -19 -86 -67 0 -27 -3 -30 -29 -30 -62 0 -78 -14 -86 -75 -9 -76 -29 -95 -100 -95 -31 0 -72 -7 -92 -15 -20 -8 -52 -15 -72 -15 -47 0 -180 -16 -206 -24 -15 -5 -30 1 -55 22 -33 29 -34 29 -54 11 -23 -22 -21 -22 -63 -10 -27 8 -35 6 -43 -7 -9 -16 -11 -15 -25 3 -9 12 -13 28 -10 40 4 11 7 25 7 32 1 7 5 10 10 7 4 -3 15 2 24 10 14 14 13 18 -12 41 -32 30 -34 64 -8 150 19 67 165 356 184 365 83 41 132 48 183 26z m598 -548 c2 -25 -3 -73 -9 -83 -7 -12 -20 28 -21 68 -1 18 4 27 14 27 8 0 15 -6 16 -12z m-1077 -55 c-12 -49 -23 -73 -34 -73 -5 0 -27 -17 -48 -39 -31 -32 -41 -37 -60 -30 -20 7 -21 12 -12 30 6 11 9 27 6 34 -8 22 28 45 73 45 38 0 43 3 52 30 14 38 32 40 23 3z m-200 -129 c12 -12 13 -20 6 -35 -6 -10 -16 -19 -22 -19 -19 0 -48 32 -48 52 0 23 42 25 64 2z m-4623 -601 c-12 -20 -14 -14 -5 12 4 9 9 14 11 11 3 -2 0 -13 -6 -23z m6388 -656 c36 -11 50 -11 86 1 41 13 44 13 89 -15 26 -17 54 -44 64 -64 9 -19 26 -38 37 -43 11 -5 30 -25 43 -44 20 -30 22 -43 17 -86 -4 -28 -12 -57 -17 -63 -16 -20 -38 -15 -38 7 0 11 -7 20 -15 20 -8 0 -15 -9 -15 -20 0 -11 -12 -26 -29 -34 -15 -8 -35 -26 -44 -39 -14 -21 -24 -25 -78 -26 -34 -1 -82 -8 -106 -16 -24 -8 -49 -15 -56 -15 -7 0 -32 -14 -56 -30 -27 -19 -57 -30 -78 -30 -39 0 -88 -22 -96 -45 -4 -9 -19 -15 -37 -15 -56 0 -115 -20 -130 -45 -25 -40 -142 -169 -161 -179 -23 -11 -134 11 -150 30 -6 8 -18 14 -25 14 -24 0 -45 46 -55 120 -9 62 -8 78 12 136 17 49 28 68 46 75 14 5 42 24 64 42 30 25 43 45 56 91 12 44 28 71 63 107 26 27 56 49 67 49 10 0 29 7 42 16 19 14 39 16 111 11 82 -6 88 -5 109 17 15 16 39 26 74 30 50 7 107 32 107 48 0 12 50 9 99 -5z m-6417 -472 c7 -154 31 -354 54 -455 8 -36 30 -92 49 -125 53 -91 81 -155 89 -203 4 -25 -2 -106 -13 -195 -33 -255 -35 -300 -16 -489 12 -127 16 -215 11 -315 -3 -76 -9 -231 -12 -346 -7 -239 4 -220 -124 -215 l-75 3 0 180 c0 99 4 223 9 276 5 56 5 139 0 195 l-9 99 -7 -140 c-3 -77 -10 -247 -13 -377 l-7 -238 -87 0 c-47 0 -92 4 -100 9 -12 8 -14 38 -10 163 4 151 3 439 -2 786 -2 139 2 213 20 347 32 244 20 328 -64 420 -48 53 -59 76 -85 171 -17 64 -22 118 -27 285 -6 225 -2 275 25 283 9 2 51 6 92 8 l75 3 8 -155 c12 -254 24 -287 19 -53 l-5 211 24 5 c13 3 58 4 99 3 l75 -1 7 -140z m4586 -640 c26 -22 30 -33 36 -103 6 -71 5 -81 -18 -123 -14 -24 -40 -55 -58 -69 -18 -13 -37 -29 -41 -37 -4 -7 -16 -13 -25 -13 -10 0 -28 -7 -41 -16 -16 -12 -37 -15 -76 -12 -77 6 -85 16 -85 104 0 97 34 166 120 249 49 46 145 57 188 20z m-7208 -704 c0 -10 -7 -35 -15 -54 -8 -20 -15 -67 -16 -104 0 -47 -3 -62 -9 -48 -12 28 -12 143 1 188 10 38 39 52 39 18z m56 -96 c-5 -14 -9 -15 -21 -5 -12 10 -13 16 -4 27 15 18 34 1 25 -22z m8177 -961 c30 -33 25 -60 -21 -109 l-34 -35 -20 25 c-37 47 -11 145 39 145 6 0 23 -12 36 -26z m-5640 -172 c15 -16 15 -21 3 -38 -14 -18 -15 -18 -35 0 -12 11 -21 27 -21 38 0 24 32 24 53 0z"></path>
    <path d="M7750 10612 c0 -13 23 -32 39 -32 11 0 10 4 -4 20 -19 21 -35 26 -35 12z"></path>
    <path d="M8632 8420 c3 -17 1 -33 -3 -36 -5 -3 -6 -18 -2 -34 4 -22 1 -31 -11 -36 -24 -9 -19 -29 11 -43 26 -12 56 0 34 13 -8 5 -7 16 4 35 12 24 12 31 -1 49 -10 15 -11 27 -5 45 10 27 6 37 -17 37 -10 0 -13 -8 -10 -30z"></path>
    <path d="M8565 8429 c-4 -6 -5 -13 -2 -16 7 -7 27 6 27 18 0 12 -17 12 -25 -2z"></path>
    <path d="M8590 8384 c0 -8 5 -12 10 -9 6 3 10 10 10 16 0 5 -4 9 -10 9 -5 0 -10 -7 -10 -16z"></path>
    <path d="M8846 7125 c-9 -35 -16 -68 -16 -73 0 -13 70 -26 81 -15 10 10 -29 153 -41 153 -4 0 -15 -29 -24 -65z"></path>
    <path d="M1021 7037 c-6 -8 -9 -22 -5 -31 7 -18 39 -22 49 -6 3 6 15 10 26 10 10 0 19 -4 19 -10 0 -5 5 -10 11 -10 6 0 9 12 7 27 -3 24 -8 27 -49 30 -31 3 -49 0 -58 -10z"></path>
    <path d="M9751 6888 c-29 -72 -50 -137 -47 -144 5 -13 66 -34 99 -34 38 0 78 31 98 76 34 82 19 148 -47 202 -21 18 -41 32 -45 32 -3 0 -30 -59 -58 -132z"></path>
    <path d="M7912 7043 c-18 -7 -42 -58 -42 -91 0 -73 101 -194 175 -208 47 -9 63 0 81 41 50 119 -102 303 -214 258z"></path>
    <path d="M5363 7023 c-15 -5 -17 -23 -4 -23 5 0 11 7 15 15 3 8 4 15 3 14 -1 0 -8 -3 -14 -6z"></path>
    <path d="M5240 6978 c-36 -25 -165 -177 -156 -185 3 -3 19 2 37 11 18 9 44 16 58 16 27 1 69 26 59 36 -4 3 -15 1 -26 -5 -24 -13 -30 -7 -24 24 6 33 29 52 44 37 20 -20 83 -14 103 8 26 28 14 34 -29 14 -51 -25 -66 -7 -31 35 32 38 14 42 -35 9z"></path>
    <path d="M5007 6886 c-4 -10 -1 -13 9 -9 7 3 14 9 14 14 0 14 -17 10 -23 -5z"></path>
    <path d="M5566 6855 c4 -8 11 -15 16 -15 6 0 5 6 -2 15 -7 8 -14 15 -16 15 -2 0 -1 -7 2 -15z"></path>
    <path d="M5630 6810 c0 -5 9 -18 20 -27 11 -10 20 -22 20 -28 0 -11 -154 -92 -292 -154 -42 -18 -68 -36 -68 -46 0 -8 5 -15 10 -15 6 0 11 -8 11 -17 1 -10 4 -5 8 12 4 17 16 34 31 41 14 7 73 35 131 62 179 84 221 118 183 148 -35 27 -54 35 -54 24z"></path>
    <path d="M4893 6799 c11 -7 23 -7 35 0 14 9 11 10 -18 10 -29 0 -32 -1 -17 -10z"></path>
    <path d="M5437 6781 c-4 -17 -3 -21 5 -13 5 5 8 16 6 23 -3 8 -7 3 -11 -10z"></path>
    <path d="M4822 6753 c-46 -66 -74 -148 -29 -88 12 17 37 46 55 66 27 30 30 38 16 43 -22 8 -20 9 -42 -21z"></path>
    <path d="M5203 6773 c-7 -2 -13 -16 -13 -31 0 -14 -7 -33 -16 -43 -15 -16 -14 -17 5 -12 11 3 27 16 36 29 8 13 22 24 30 24 18 0 4 -54 -21 -81 -10 -11 -15 -22 -11 -25 6 -6 87 92 87 106 0 26 -63 47 -97 33z"></path>
    <path d="M5000 6699 c0 -5 5 -7 10 -4 6 3 10 8 10 11 0 2 -4 4 -10 4 -5 0 -10 -5 -10 -11z"></path>
    <path d="M5128 6683 c7 -3 16 -2 19 1 4 3 -2 6 -13 5 -11 0 -14 -3 -6 -6z"></path>
    <path d="M4730 6651 c-10 -20 -14 -51 -6 -51 2 0 13 -3 23 -7 16 -6 16 -5 4 10 -8 10 -11 27 -7 42 8 30 1 33 -14 6z"></path>
    <path d="M4993 6663 c-18 -6 -16 -23 1 -23 17 0 30 16 19 23 -5 2 -14 2 -20 0z"></path>
    <path d="M5055 6650 c-21 -23 -8 -27 20 -7 11 8 14 16 8 20 -6 4 -18 -2 -28 -13z"></path>
    <path d="M4940 6605 c-16 -19 0 -19 26 0 16 12 16 14 3 15 -9 0 -22 -7 -29 -15z"></path>
    <path d="M5190 6590 c0 -5 -6 -10 -14 -10 -8 0 -16 -7 -20 -15 -4 -12 3 -15 30 -15 37 0 58 25 33 41 -19 12 -29 11 -29 -1z"></path>
    <path d="M5089 6563 c-13 -17 -13 -17 6 -3 11 8 22 16 24 17 2 2 0 3 -6 3 -6 0 -17 -8 -24 -17z"></path>
    <path d="M5091 6518 c-31 -20 -32 -22 -15 -35 25 -18 27 -17 47 16 22 38 10 45 -32 19z"></path>
    <path d="M5180 6505 c-7 -9 -10 -18 -6 -22 9 -10 58 16 51 27 -9 15 -31 12 -45 -5z"></path>
    <path d="M4780 6507 c0 -4 7 -21 15 -37 16 -31 19 -32 163 -45 73 -7 161 3 141 16 -8 5 -31 6 -51 2 -21 -3 -81 -2 -133 2 -94 7 -97 8 -116 38 -10 18 -19 28 -19 24z"></path>
    <path d="M7523 6696 l-28 -25 50 -45 c28 -25 55 -45 61 -46 13 0 34 43 34 71 0 26 -43 69 -69 69 -11 0 -33 -11 -48 -24z"></path>
    <path d="M10153 6648 c-38 -42 -57 -91 -56 -146 1 -96 54 -153 109 -117 41 27 57 71 52 146 -8 113 -58 168 -105 117z"></path>
    <path d="M11273 6515 c-9 -24 1 -27 15 -5 8 13 8 20 2 20 -6 0 -13 -7 -17 -15z"></path>
    <path d="M8310 5772 c0 -23 -5 -21 175 -42 158 -18 327 -30 418 -30 71 0 89 -3 94 -16 3 -8 -10 -57 -30 -107 -68 -174 -239 -658 -234 -663 4 -5 58 134 107 281 21 61 69 190 108 287 39 98 72 188 74 200 3 23 1 23 -137 30 -77 4 -203 14 -280 23 -77 8 -167 18 -200 21 -33 3 -68 13 -77 22 -17 14 -18 13 -18 -6z"></path>
    <path d="M8691 4794 c0 -11 3 -14 6 -6 3 7 2 16 -1 19 -3 4 -6 -2 -5 -13z"></path>
    <path d="M8671 4723 c-6 -21 -10 -47 -10 -58 1 -11 7 5 15 35 15 62 11 82 -5 23z"></path>
    <path d="M8637 4587 c-15 -47 -108 -204 -195 -330 -34 -49 -85 -153 -97 -197 -4 -14 9 5 28 41 18 37 82 140 140 229 78 119 113 181 128 232 12 38 19 71 17 73 -2 3 -12 -19 -21 -48z"></path>
    <path d="M8356 3903 c-16 -16 -36 -77 -36 -109 0 -56 23 -175 34 -171 33 11 64 145 45 194 l-11 28 -9 -23 c-5 -13 -13 -20 -19 -17 -16 10 -11 57 8 71 12 9 14 16 6 23 -6 6 -14 8 -18 4z m21 -175 c-3 -8 -6 -5 -6 6 -1 11 2 17 5 13 3 -3 4 -12 1 -19z"></path>
    <path d="M8428 3668 c-3 -7 5 -29 18 -48 l24 -34 0 27 c0 29 9 34 29 15 10 -11 12 -7 9 17 -3 27 -7 30 -39 33 -23 2 -38 -2 -41 -10z"></path>
    <path d="M8346 3595 c-9 -23 -8 -25 9 -25 17 0 19 9 6 28 -7 11 -10 10 -15 -3z"></path>
    <path d="M8712 2830 c0 -19 2 -27 5 -17 2 9 2 25 0 35 -3 9 -5 1 -5 -18z"></path>
    <path d="M8866 2205 c-10 -71 -20 -200 -21 -285 -1 -85 -1 -130 1 -100 6 84 23 247 35 325 6 39 9 97 7 130 -3 56 -4 52 -22 -70z"></path>
    <path d="M8852 1655 c0 -16 2 -22 5 -12 2 9 2 23 0 30 -3 6 -5 -1 -5 -18z"></path>
    <path d="M15505 2148 c-22 -26 -25 -38 -20 -67 10 -59 15 -69 36 -74 46 -12 69 20 69 98 0 34 -5 47 -22 59 -30 21 -32 21 -63 -16z"></path>
    <path d="M15990 1876 c0 -7 -7 -19 -15 -26 -8 -7 -15 -20 -15 -29 0 -9 -9 -34 -20 -56 -25 -50 -27 -163 -4 -243 26 -89 14 -298 -24 -417 -24 -74 -84 -203 -146 -310 -57 -100 -159 -211 -222 -243 -47 -24 -80 -77 -90 -145 -4 -23 -12 -55 -19 -72 -21 -51 -44 -166 -51 -252 l-6 -83 311 0 311 0 0 945 c0 520 -2 945 -5 945 -3 0 -5 -6 -5 -14z"></path>
    <path d="M15363 1305 c-27 -19 -43 -72 -43 -141 0 -56 13 -79 51 -88 19 -4 31 0 46 17 28 31 53 100 53 147 0 68 -55 101 -107 65z"></path>
    <path d="M9765 341 c-38 -6 -40 -8 -43 -43 -4 -44 3 -46 60 -18 23 11 51 20 62 20 12 0 28 5 36 10 13 8 13 10 -1 10 -9 0 -22 7 -29 15 -13 16 -19 16 -85 6z"></path>
    <path d="M9511 200 c-24 -11 -49 -27 -55 -34 -6 -8 -24 -16 -41 -19 -16 -3 -53 -12 -81 -20 -31 -9 -57 -11 -66 -6 -11 6 -17 3 -21 -10 -3 -13 -18 -20 -53 -25 -27 -3 -63 -14 -79 -25 -17 -10 -47 -23 -68 -30 -68 -23 -51 -31 62 -31 106 0 111 1 111 21 0 19 4 21 48 15 117 -13 148 -8 203 35 20 16 41 29 47 29 8 0 47 28 102 74 9 7 24 15 34 19 32 12 6 27 -47 27 -30 0 -71 -9 -96 -20z"></path>
  </g>
</svg>
