<svg xmlns="http://www.w3.org/2000/svg" xmlns:xlink="http://www.w3.org/1999/xlink" width="512" viewBox="0 0 384 383.999986" height="512" preserveAspectRatio="xMidYMid meet"><rect x="-38.4" width="460.8" fill="#ffffff" y="-38.399999" height="460.799983" fill-opacity="1"></rect><rect x="-38.4" width="460.8" fill="#cfcfcf" y="-38.399999" height="460.799983" fill-opacity="1"></rect><path fill="#ffffff" d="M 191.492188 95.5625 C 132.898438 95.5625 78.972656 122.277344 43.546875 168.839844 C 38.023438 176.09375 38.023438 186.222656 43.542969 193.464844 C 78.972656 240.035156 132.898438 266.75 191.492188 266.75 C 250.082031 266.75 304.007812 240.035156 339.433594 193.472656 C 344.957031 186.222656 344.957031 176.101562 339.4375 168.851562 C 304.007812 122.277344 250.082031 95.5625 191.492188 95.5625 Z M 323.300781 181.1875 C 291.738281 222.675781 243.691406 246.472656 191.492188 246.472656 C 139.289062 246.472656 91.246094 222.675781 59.679688 181.125 C 91.246094 139.636719 139.289062 115.839844 191.492188 115.839844 C 243.691406 115.839844 291.738281 139.636719 323.300781 181.125 C 323.300781 181.132812 323.300781 181.179688 323.300781 181.1875 Z M 323.300781 181.1875 " fill-opacity="1" fill-rule="nonzero"></path><path fill="#ffffff" d="M 191.492188 121.804688 C 158.761719 121.804688 132.140625 148.429688 132.140625 181.15625 C 132.140625 213.882812 158.761719 240.507812 191.492188 240.507812 C 224.21875 240.507812 250.839844 213.882812 250.839844 181.15625 C 250.839844 148.429688 224.21875 121.804688 191.492188 121.804688 Z M 191.492188 220.230469 C 169.945312 220.230469 152.417969 202.699219 152.417969 181.15625 C 152.417969 159.613281 169.945312 142.082031 191.492188 142.082031 C 213.035156 142.082031 230.5625 159.613281 230.5625 181.15625 C 230.5625 202.699219 213.035156 220.230469 191.492188 220.230469 Z M 191.492188 220.230469 " fill-opacity="1" fill-rule="nonzero"></path></svg>