<svg xmlns="http://www.w3.org/2000/svg" width="500.000000pt" height="500.000000pt" viewBox="0 0 500.000000 500.000000" preserveAspectRatio="xMidYMid meet"><g transform="translate(0.000000,500.000000) scale(0.100000,-0.100000)" fill="#000000" stroke="none"><path d="M3205 3959 c-116 -116 -224 -217 -242 -225 -18 -8 -48 -14 -68 -14 -123 0 -152 -167 -37 -211 65 -25 142 28 142 97 0 70 26 104 247 325 126 127 213 221 209 228 -4 6 -15 11 -24 11 -10 0 -112 -95 -227 -211z"></path><path d="M1951 3664 c-22 -26 -63 -91 -90 -145 -44 -85 -64 -111 -152 -199 l-102 -100 92 0 c87 0 91 1 91 22 0 12 5 50 11 85 l11 63 126 126 125 125 -33 34 c-19 19 -35 35 -36 35 -1 0 -21 -21 -43 -46z"></path><path d="M2390 3614 c-144 -39 -258 -153 -296 -298 -15 -57 -18 -106 -6 -106 4 0 50 43 102 95 l95 95 197 -197 c185 -185 199 -197 219 -185 12 7 23 11 25 9 3 -3 -4 -28 -15 -58 -24 -61 -15 -85 28 -74 25 6 25 6 8 -13 -32 -35 -135 -75 -199 -76 l-58 -1 -192 -192 c-123 -122 -203 -194 -220 -199 -16 -3 -28 -10 -28 -15 0 -5 1 -9 3 -9 1 0 36 -14 77 -31 223 -91 477 -95 700 -12 109 41 246 127 304 192 l20 22 -76 76 -75 75 -62 -49 c-98 -80 -287 -159 -358 -151 -27 3 -21 10 107 139 74 75 145 147 157 161 l23 24 -25 34 -25 34 153 152 c151 150 153 152 124 158 -16 3 -41 6 -55 6 -25 0 -24 2 22 49 l47 48 -55 6 c-72 7 -113 -5 -163 -48 -23 -19 -43 -35 -46 -35 -3 0 -77 72 -166 161 -137 137 -159 164 -151 179 6 11 15 22 20 25 44 27 -68 34 -160 9z m491 -569 c-11 -25 -24 -45 -30 -45 -12 0 12 84 31 107 23 28 22 -10 -1 -62z m-338 -590 c-3 -9 -8 -14 -10 -11 -3 3 -2 9 2 15 9 16 15 13 8 -4z"></path><path d="M3289 3522 l-35 -108 49 50 c26 27 52 56 56 64 9 16 -15 102 -28 102 -4 0 -23 -49 -42 -108z"></path><path d="M1530 2320 c-24 -64 -22 -90 8 -90 23 0 114 30 126 41 10 9 -83 109 -101 109 -6 0 -21 -27 -33 -60z"></path></g></svg>