<svg xmlns="http://www.w3.org/2000/svg" width="512.000000pt" height="512.000000pt" viewBox="0 0 512.000000 512.000000" preserveAspectRatio="xMidYMid meet"><g transform="translate(0.000000,512.000000) scale(0.100000,-0.100000)" fill="#000000" stroke="none"><path d="M1920 5104 c-35 -7 -102 -32 -149 -54 -68 -33 -100 -57 -166 -123 -133 -135 -188 -267 -188 -452 0 -121 19 -199 76 -310 38 -76 67 -106 501 -543 254 -256 478 -472 498 -483 47 -24 89 -24 136 0 20 11 244 227 498 483 l461 463 47 95 c97 197 98 380 3 580 -32 69 -55 100 -121 166 -89 89 -144 123 -256 161 -215 72 -463 19 -633 -137 l-67 -62 -67 62 c-153 140 -369 198 -573 154z m283 -317 c40 -18 89 -57 170 -135 175 -170 199 -170 374 0 144 139 191 163 313 163 76 0 93 -4 152 -33 124 -61 191 -168 192 -307 1 -144 -2 -149 -454 -600 l-390 -390 -390 390 c-451 451 -455 456 -455 600 1 91 27 162 85 228 97 111 268 146 403 84z"></path><path d="M355 4886 c-84 -21 -147 -57 -211 -121 -65 -65 -105 -136 -123 -223 -8 -37 -11 -323 -11 -930 0 -936 2 -981 50 -1136 28 -91 77 -196 129 -278 23 -37 217 -277 431 -534 l390 -468 0 -148 0 -148 -40 0 c-59 0 -116 -33 -140 -80 -19 -37 -20 -58 -20 -370 0 -312 1 -333 20 -370 13 -26 34 -47 60 -60 39 -20 55 -20 1670 -20 1615 0 1631 0 1670 20 26 13 47 34 60 60 19 37 20 58 20 370 0 312 -1 333 -20 370 -24 47 -81 80 -140 80 l-40 0 0 148 0 148 390 468 c215 258 411 502 435 541 84 135 141 293 165 460 14 103 13 1808 -1 1877 -28 129 -127 258 -241 311 -265 125 -577 -27 -637 -311 -7 -35 -11 -242 -11 -622 l0 -569 -63 34 c-88 45 -188 62 -279 47 -146 -25 -133 -14 -704 -586 -364 -365 -532 -540 -560 -583 -21 -35 -41 -63 -44 -63 -3 0 -23 28 -44 63 -28 43 -198 221 -555 580 -568 570 -559 563 -708 589 -92 15 -191 -1 -280 -47 l-63 -34 0 569 c0 386 -4 586 -11 622 -19 86 -59 158 -124 224 -112 113 -269 158 -420 120z m175 -306 c26 -13 47 -34 60 -60 19 -38 20 -57 20 -694 0 -705 2 -739 53 -866 53 -130 82 -165 452 -538 198 -200 373 -370 389 -379 39 -20 108 -19 146 4 62 36 87 117 59 190 -5 15 -156 175 -335 354 -272 272 -327 332 -334 363 -24 106 69 201 177 182 34 -7 91 -60 506 -474 258 -257 489 -494 514 -527 54 -70 123 -213 149 -305 15 -57 18 -121 21 -497 l4 -433 -550 0 -551 0 0 190 c0 154 -3 197 -16 221 -8 17 -198 250 -421 517 -222 268 -423 517 -445 554 -47 80 -93 206 -107 298 -7 42 -11 378 -11 935 1 978 -4 913 76 961 48 29 92 30 144 4z m4200 0 c26 -13 47 -34 60 -60 20 -38 20 -57 20 -907 0 -554 -4 -892 -11 -933 -14 -92 -60 -218 -107 -298 -22 -37 -223 -286 -445 -554 -223 -267 -413 -500 -421 -517 -13 -24 -16 -67 -16 -221 l0 -190 -550 0 -550 0 0 394 c0 444 7 516 65 649 68 159 76 168 595 689 442 443 499 498 533 504 108 19 201 -76 177 -182 -7 -31 -62 -91 -334 -363 -179 -179 -330 -339 -335 -354 -28 -73 -3 -154 59 -190 38 -23 107 -24 146 -4 16 9 191 179 389 379 370 373 399 408 452 538 51 127 53 161 53 868 1 739 -3 701 76 748 48 29 92 30 144 4z m-2320 -4130 l0 -150 -650 0 -650 0 0 150 0 150 650 0 650 0 0 -150z m1600 0 l0 -150 -650 0 -650 0 0 150 0 150 650 0 650 0 0 -150z"></path></g></svg>